<svg width="1885" height="670" viewBox="0 0 1885 670" fill="none" xmlns="http://www.w3.org/2000/svg">
<g filter="url(#filter0_d_302_2)">
<path d="M859.387 65.2311H919.526V265.882C919.526 284.43 915.358 300.542 907.021 314.219C898.778 327.895 887.302 338.434 872.595 345.834C857.888 353.234 840.793 356.934 821.308 356.934C803.979 356.934 788.241 353.89 774.096 347.801C760.045 341.619 748.898 332.251 740.654 319.699C732.411 307.053 728.336 291.175 728.43 272.065H788.991C789.178 279.653 790.724 286.163 793.628 291.596C796.625 296.936 800.7 301.057 805.852 303.961C811.098 306.771 817.28 308.177 824.4 308.177C831.894 308.177 838.217 306.584 843.369 303.399C848.615 300.121 852.596 295.343 855.312 289.067C858.029 282.791 859.387 275.063 859.387 265.882V65.2311ZM958.87 115.394V65.2311H1195.21V115.394H1107.11V353H1046.97V115.394H958.87ZM1248.57 353H1183.37L1282.72 65.2311H1361.12L1460.32 353H1395.13L1323.04 130.991H1320.79L1248.57 353ZM1244.5 239.888H1398.5V287.381H1244.5V239.888ZM1672.25 158.25C1670.28 151.412 1667.52 145.37 1663.96 140.124C1660.4 134.785 1656.04 130.288 1650.89 126.635C1645.83 122.888 1640.03 120.031 1633.47 118.064C1627.01 116.096 1619.84 115.113 1611.97 115.113C1597.26 115.113 1584.34 118.766 1573.19 126.073C1562.14 133.379 1553.52 144.012 1547.33 157.969C1541.15 171.833 1538.06 188.788 1538.06 208.835C1538.06 228.881 1541.11 245.93 1547.19 259.981C1553.28 274.032 1561.9 284.758 1573.05 292.158C1584.2 299.465 1597.36 303.118 1612.53 303.118C1626.3 303.118 1638.06 300.683 1647.8 295.812C1657.64 290.847 1665.13 283.868 1670.28 274.875C1675.53 265.882 1678.15 255.25 1678.15 242.979L1690.52 244.806H1616.33V198.999H1736.75V235.251C1736.75 260.543 1731.41 282.276 1720.73 300.448C1710.05 318.528 1695.34 332.485 1676.61 342.321C1657.87 352.063 1636.42 356.934 1612.25 356.934C1585.27 356.934 1561.57 350.986 1541.15 339.089C1520.73 327.099 1504.81 310.097 1493.38 288.083C1482.04 265.976 1476.38 239.747 1476.38 209.397C1476.38 186.072 1479.75 165.276 1486.49 147.009C1493.33 128.649 1502.89 113.099 1515.16 100.359C1527.43 87.6194 1541.71 77.924 1558.01 71.2731C1574.31 64.6222 1591.97 61.2967 1610.99 61.2967C1627.29 61.2967 1642.46 63.6854 1656.51 68.4629C1670.56 73.1466 1683.02 79.7975 1693.89 88.4156C1704.85 97.0337 1713.79 107.291 1720.73 119.188C1727.66 130.991 1732.11 144.012 1734.08 158.25H1672.25Z" fill="#FDAC53"/>
</g>
<g filter="url(#filter1_d_302_2)">
<path d="M794.618 403.757V581.233H757.095V403.757H794.618ZM861.713 504.281V581.233H824.797V448.126H859.98V471.611H861.54C864.486 463.869 869.426 457.745 876.358 453.239C883.291 448.675 891.697 446.393 901.576 446.393C910.819 446.393 918.879 448.415 925.753 452.459C932.628 456.503 937.972 462.28 941.785 469.791C945.598 477.243 947.505 486.14 947.505 496.481V581.233H910.588V503.067C910.646 494.922 908.566 488.567 904.349 484.003C900.131 479.381 894.325 477.07 886.931 477.07C881.962 477.07 877.572 478.139 873.759 480.276C870.003 482.414 867.057 485.534 864.919 489.635C862.84 493.679 861.771 498.561 861.713 504.281ZM1047.4 448.126V475.857H967.241V448.126H1047.4ZM985.439 416.236H1022.36V540.33C1022.36 543.739 1022.88 546.396 1023.92 548.303C1024.96 550.152 1026.4 551.451 1028.25 552.202C1030.15 552.954 1032.35 553.329 1034.83 553.329C1036.57 553.329 1038.3 553.185 1040.03 552.896C1041.77 552.549 1043.1 552.289 1044.02 552.116L1049.83 579.586C1047.98 580.164 1045.38 580.829 1042.03 581.58C1038.68 582.388 1034.6 582.879 1029.81 583.053C1020.91 583.399 1013.11 582.215 1006.41 579.5C999.767 576.784 994.596 572.567 990.899 566.848C987.201 561.128 985.381 553.907 985.439 545.183V416.236ZM1130.68 583.833C1116.99 583.833 1105.2 581.06 1095.32 575.514C1085.5 569.91 1077.93 561.995 1072.62 551.769C1067.3 541.486 1064.64 529.325 1064.64 515.286C1064.64 501.594 1067.3 489.578 1072.62 479.236C1077.93 468.895 1085.41 460.836 1095.06 455.059C1104.77 449.282 1116.15 446.393 1129.2 446.393C1137.99 446.393 1146.16 447.808 1153.73 450.639C1161.35 453.412 1168 457.601 1173.66 463.205C1179.38 468.809 1183.83 475.857 1187.01 484.349C1190.18 492.784 1191.77 502.663 1191.77 513.986V524.125H1079.38V501.248H1157.02C1157.02 495.933 1155.87 491.224 1153.56 487.122C1151.24 483.02 1148.04 479.814 1143.94 477.503C1139.89 475.135 1135.18 473.95 1129.81 473.95C1124.21 473.95 1119.24 475.25 1114.91 477.85C1110.63 480.392 1107.28 483.829 1104.85 488.162C1102.43 492.437 1101.19 497.204 1101.13 502.461V524.212C1101.13 530.798 1102.34 536.489 1104.77 541.284C1107.25 546.079 1110.75 549.776 1115.25 552.376C1119.76 554.976 1125.1 556.275 1131.28 556.275C1135.39 556.275 1139.14 555.698 1142.55 554.542C1145.96 553.387 1148.88 551.654 1151.3 549.343C1153.73 547.032 1155.58 544.201 1156.85 540.85L1190.99 543.103C1189.26 551.307 1185.71 558.471 1180.33 564.595C1175.02 570.661 1168.14 575.398 1159.71 578.807C1151.33 582.157 1141.65 583.833 1130.68 583.833ZM1215.86 581.233V448.126H1251.65V471.351H1253.04C1255.47 463.089 1259.54 456.85 1265.26 452.632C1270.98 448.357 1277.56 446.22 1285.02 446.22C1286.86 446.22 1288.86 446.335 1291 446.566C1293.13 446.797 1295.01 447.115 1296.63 447.52V480.276C1294.89 479.756 1292.5 479.294 1289.44 478.89C1286.37 478.485 1283.57 478.283 1281.03 478.283C1275.6 478.283 1270.75 479.468 1266.47 481.836C1262.25 484.147 1258.9 487.382 1256.42 491.542C1253.99 495.701 1252.78 500.497 1252.78 505.927V581.233H1215.86ZM1393.97 448.126V475.857H1311.81V448.126H1393.97ZM1330.62 581.233V438.507C1330.62 428.859 1332.5 420.858 1336.25 414.503C1340.07 408.148 1345.26 403.382 1351.85 400.204C1358.44 397.027 1365.92 395.438 1374.3 395.438C1379.96 395.438 1385.13 395.871 1389.81 396.738C1394.54 397.605 1398.07 398.384 1400.38 399.078L1393.79 426.808C1392.35 426.346 1390.56 425.913 1388.42 425.508C1386.34 425.104 1384.2 424.902 1382.01 424.902C1376.58 424.902 1372.79 426.173 1370.66 428.715C1368.52 431.199 1367.45 434.694 1367.45 439.2V581.233H1330.62ZM1449.71 583.746C1441.22 583.746 1433.65 582.273 1427.01 579.326C1420.36 576.322 1415.1 571.903 1411.23 566.068C1407.42 560.175 1405.51 552.838 1405.51 544.057C1405.51 536.662 1406.87 530.451 1409.59 525.425C1412.3 520.399 1416 516.355 1420.68 513.293C1425.36 510.231 1430.67 507.92 1436.62 506.36C1442.63 504.801 1448.93 503.703 1455.52 503.067C1463.26 502.259 1469.5 501.508 1474.23 500.814C1478.97 500.063 1482.41 498.966 1484.55 497.521C1486.68 496.077 1487.75 493.939 1487.75 491.109V490.589C1487.75 485.1 1486.02 480.854 1482.55 477.85C1479.14 474.846 1474.29 473.344 1467.99 473.344C1461.35 473.344 1456.06 474.817 1452.14 477.763C1448.21 480.652 1445.61 484.291 1444.34 488.682L1410.19 485.909C1411.93 477.821 1415.34 470.831 1420.42 464.938C1425.5 458.987 1432.06 454.423 1440.09 451.246C1448.18 448.011 1457.54 446.393 1468.17 446.393C1475.56 446.393 1482.64 447.26 1489.4 448.993C1496.22 450.726 1502.25 453.412 1507.51 457.052C1512.83 460.692 1517.01 465.371 1520.08 471.091C1523.14 476.752 1524.67 483.54 1524.67 491.455V581.233H1489.66V562.775H1488.62C1486.48 566.934 1483.62 570.603 1480.04 573.78C1476.46 576.9 1472.15 579.355 1467.13 581.146C1462.1 582.879 1456.3 583.746 1449.71 583.746ZM1460.28 558.269C1465.71 558.269 1470.51 557.2 1474.67 555.062C1478.83 552.867 1482.09 549.921 1484.46 546.223C1486.83 542.526 1488.01 538.337 1488.01 533.658V519.532C1486.86 520.283 1485.27 520.977 1483.25 521.612C1481.28 522.19 1479.06 522.739 1476.57 523.259C1474.09 523.721 1471.61 524.154 1469.12 524.559C1466.64 524.905 1464.38 525.223 1462.36 525.512C1458.03 526.147 1454.24 527.158 1451.01 528.545C1447.77 529.931 1445.26 531.809 1443.47 534.178C1441.68 536.489 1440.78 539.377 1440.78 542.843C1440.78 547.87 1442.6 551.711 1446.24 554.369C1449.94 556.969 1454.62 558.269 1460.28 558.269ZM1613.45 583.833C1599.82 583.833 1588.09 580.944 1578.27 575.167C1568.5 569.332 1560.99 561.244 1555.74 550.903C1550.54 540.561 1547.94 528.66 1547.94 515.2C1547.94 501.565 1550.57 489.607 1555.82 479.323C1561.14 468.982 1568.68 460.923 1578.44 455.145C1588.2 449.311 1599.82 446.393 1613.28 446.393C1624.89 446.393 1635.06 448.502 1643.78 452.719C1652.5 456.936 1659.41 462.858 1664.49 470.484C1669.58 478.11 1672.38 487.065 1672.9 497.348H1638.06C1637.08 490.704 1634.48 485.36 1630.26 481.316C1626.1 477.214 1620.64 475.163 1613.88 475.163C1608.16 475.163 1603.17 476.723 1598.89 479.843C1594.67 482.905 1591.38 487.382 1589.01 493.275C1586.64 499.168 1585.46 506.303 1585.46 514.68C1585.46 523.172 1586.61 530.394 1588.93 536.344C1591.29 542.295 1594.62 546.83 1598.89 549.949C1603.17 553.069 1608.16 554.629 1613.88 554.629C1618.1 554.629 1621.88 553.762 1625.24 552.029C1628.64 550.296 1631.45 547.783 1633.64 544.49C1635.89 541.139 1637.37 537.124 1638.06 532.444H1672.9C1672.32 542.612 1669.55 551.567 1664.58 559.308C1659.67 566.992 1652.88 573 1644.21 577.333C1635.55 581.666 1625.29 583.833 1613.45 583.833ZM1757.19 583.833C1743.5 583.833 1731.72 581.06 1721.84 575.514C1712.02 569.91 1704.45 561.995 1699.13 551.769C1693.82 541.486 1691.16 529.325 1691.16 515.286C1691.16 501.594 1693.82 489.578 1699.13 479.236C1704.45 468.895 1711.93 460.836 1721.58 455.059C1731.28 449.282 1742.66 446.393 1755.72 446.393C1764.5 446.393 1772.68 447.808 1780.25 450.639C1787.87 453.412 1794.51 457.601 1800.18 463.205C1805.9 468.809 1810.34 475.857 1813.52 484.349C1816.7 492.784 1818.29 502.663 1818.29 513.986V524.125H1705.89V501.248H1783.54C1783.54 495.933 1782.38 491.224 1780.07 487.122C1777.76 483.02 1774.55 479.814 1770.45 477.503C1766.41 475.135 1761.7 473.95 1756.33 473.95C1750.72 473.95 1745.76 475.25 1741.42 477.85C1737.15 480.392 1733.8 483.829 1731.37 488.162C1728.94 492.437 1727.7 497.204 1727.64 502.461V524.212C1727.64 530.798 1728.86 536.489 1731.28 541.284C1733.77 546.079 1737.26 549.776 1741.77 552.376C1746.28 554.976 1751.62 556.275 1757.8 556.275C1761.9 556.275 1765.66 555.698 1769.07 554.542C1772.47 553.387 1775.39 551.654 1777.82 549.343C1780.25 547.032 1782.09 544.201 1783.36 540.85L1817.51 543.103C1815.77 551.307 1812.22 558.471 1806.85 564.595C1801.53 570.661 1794.66 575.398 1786.22 578.807C1777.85 582.157 1768.17 583.833 1757.19 583.833Z" fill="#FDAC53"/>
</g>
<g filter="url(#filter2_d_302_2)">
<path d="M275.667 48.6613C251.133 55.5947 235 80.6613 239.667 104.528C240.6 108.928 242.733 115.461 244.6 119.195C248.333 126.528 259.133 137.595 265.133 139.995L269 141.595V172.795V203.995H252.067C237.267 203.995 234.467 204.395 230.6 206.661C223.267 211.195 221 217.995 221 236.928V253.328H206.6C193.533 253.328 191.8 253.061 189.533 250.528C178.467 238.261 158.467 237.461 145.4 248.661L139.933 253.328H121.8H103.667V238.128V223.061L110.067 219.061C117.667 214.395 125.133 205.595 129.267 196.528C131.8 191.195 132.333 187.728 132.333 177.328C132.333 161.728 129.8 155.461 119 144.128C94.4667 118.395 54.4667 124.928 38.6 157.328C35.4 163.728 35 166.261 35 177.328C35 188.261 35.5333 191.061 38.4667 197.461C42.7333 206.661 50.2 215.061 57.9333 219.595L63.6667 222.928V249.861C63.6667 279.861 64.4667 283.195 73 288.928C77.2667 291.861 78.4667 291.995 108.6 291.995H139.933L145.667 297.061C158.2 308.128 175.133 308.128 187 297.195L192.6 291.995H206.867H221V310.661V329.328H206.867H192.733L187.267 324.661C179.4 317.995 169.4 315.195 160.2 317.195C145.4 320.528 134.333 334.261 134.333 349.195C134.467 358.928 137.8 366.128 145.4 372.795C158.467 384.395 175 384.261 187.8 372.661L193 367.995H207H221V390.661V413.328H206.6C192.733 413.328 191.933 413.195 188.867 409.861C179.8 400.128 163 397.595 151.667 404.128C148.333 406.128 144.467 408.928 143.133 410.528C141.267 412.528 139 413.328 134.867 413.328C129.667 413.328 129 412.928 125.8 407.461C121 399.195 110.2 389.995 101.267 386.528C90.8667 382.395 76.4667 382.528 65.9333 386.528C55.8 390.528 44.0667 401.328 39 411.595C35.4 418.661 35 420.528 35 432.661C35 444.528 35.4 446.795 38.7333 453.461C43.2667 462.928 54.6 473.728 64.6 478.261C74.8667 483.061 89.9333 483.195 101.267 478.795C110.2 475.328 121 466.128 125.8 457.861C129 452.395 129.667 451.995 134.867 451.995C139.267 451.995 141.267 452.795 143.8 455.461C148.467 460.528 156.333 464.128 164.2 464.928C172.467 465.728 182.6 461.995 188.467 455.861C192.067 451.995 192.333 451.995 206.467 451.995H220.733L221.267 465.728C221.667 477.461 222.2 479.995 224.867 483.861C230.067 491.195 236.6 493.328 254.067 493.328H269V515.728C269 531.328 268.467 538.661 267.4 539.728C265.533 541.595 210.333 541.995 210.333 540.128C210.333 537.195 198.467 523.461 192.333 519.461C166.733 502.395 133.4 512.395 119.933 541.061C116.867 547.595 116.333 550.395 116.333 560.661C116.333 570.795 116.867 573.728 119.8 579.995C135.267 612.528 177 619.861 200.6 594.261C203.533 591.195 207 586.661 208.333 584.261L210.867 579.995H235.267H259.667L264.6 585.461C271.533 593.195 278.6 596.395 288.333 596.395C298.333 596.395 305.267 593.061 312.6 584.795C319 577.595 321.667 569.061 320.467 560.395C319.533 553.861 315.133 544.928 310.467 540.795C307.8 538.395 307.667 536.928 307.667 515.728V493.328H336.333H365V522.528V551.861L361.533 555.595C349.533 568.395 350.2 586.528 363.133 599.595C378.867 615.461 402.733 611.728 413.667 591.728C420.2 579.861 418.467 566.261 409.133 555.728L405 550.928V522.128V493.328H433.667H462.333V522.128V550.928L458.2 555.728C452.467 562.261 450.333 567.995 450.333 576.928C450.467 595.061 464.467 609.328 482.333 609.328C491.4 609.328 498.733 605.995 505.267 599.195C517.267 586.661 517.4 568.795 505.933 555.195L502.333 550.928V520.528L502.467 489.995L509.4 486.795C519 482.261 529.533 471.328 534.467 460.661L538.6 451.995H554.2C576.733 451.995 575.667 450.395 575.667 486.261V514.395L569 518.661C547.667 532.395 539.933 559.595 551 581.995C555 590.395 566.733 601.861 575 605.461C602.867 617.861 634.467 602.661 643 572.795C648.867 552.661 638.867 528.795 620.067 517.728L614.333 514.395V487.061V459.728L618.467 454.928C628.733 443.195 630.467 428.661 622.867 416.661C611.933 398.928 590.067 395.061 575.267 408.128L569.267 413.328H554.467H539.667V397.328V381.328H546.067C551.267 381.328 553.133 381.995 555.8 384.795C564.067 393.595 580.067 396.661 590.867 391.328C602.467 385.728 610.2 373.861 610.333 361.995C610.333 354.128 605.8 343.728 600.2 338.395C587.8 326.795 567.533 326.528 557.133 337.861C554.333 340.795 552.733 341.328 546.733 341.328H539.667V312.661V283.995H560.467H581.267L586.067 288.128C599.533 299.995 615.533 300.261 628.467 288.928C639 279.595 642.6 268.795 639 256.528C636.6 247.995 629.8 239.861 621.8 235.595C613.533 231.328 600.867 231.595 593 236.128C589.667 238.128 585.8 240.928 584.467 242.528C582.067 245.195 580.6 245.328 560.733 245.328H539.667V231.995C539.667 217.061 538.333 213.195 531.667 207.461C527.8 204.261 526.467 203.995 514.867 203.995H502.333V180.261C502.333 148.395 499.8 150.661 535.133 150.661H561.933L566.733 157.728C572.467 166.128 579.8 172.395 588.733 176.395C593.8 178.795 597.4 179.328 608.333 179.328C619.8 179.328 622.6 178.928 628.333 176.128C637.533 171.595 647.8 161.461 652.467 152.395C656.067 145.328 656.333 143.461 656.333 130.661C656.333 117.861 656.067 115.995 652.6 109.461C647.533 99.8613 637.267 89.9947 627.933 85.5947C621.533 82.6613 618.467 81.9947 608.333 81.9947C598.067 81.9947 595.267 82.528 588.733 85.5947C579.933 89.5947 569.267 99.0613 565.533 105.995L563 110.661H534.867H506.733L503.533 107.195C498.733 101.861 490.733 98.6613 482.333 98.6613C464.467 98.6613 450.467 112.928 450.333 131.061C450.333 139.995 452.467 145.728 458.2 152.261L462.333 157.061V180.528V203.995H433.667H405V180.528V157.061L409.133 152.261C418.467 141.728 420.2 128.128 413.667 116.261C402.733 96.128 379 92.528 362.867 108.528C350.067 121.461 349.533 139.595 361.533 152.395L365 156.128V180.128V203.995H336.333H307.667V172.795V141.595L311.8 139.995C318.6 137.195 328.733 126.128 333 117.061C338.2 105.861 339.267 96.2613 336.467 85.328C329.667 58.3947 301.533 41.4613 275.667 48.6613ZM295.667 89.328C299.267 92.928 299.133 99.5947 295.4 103.595C289.4 110.128 278.333 105.461 278.333 96.3947C278.333 90.528 282.333 86.6613 288.333 86.6613C291.267 86.6613 294.067 87.728 295.667 89.328ZM614.867 123.461C617.933 126.395 618.867 131.728 617.133 135.461C614.333 141.595 605.533 142.928 600.467 137.861C597.667 135.195 597.8 126.795 600.6 123.728C603.267 120.661 611.933 120.528 614.867 123.461ZM90.6 170.261C94.0667 174.128 94.6 178.261 92.4667 182.395C89.2667 188.528 82.3333 189.995 76.8667 185.461C73 182.395 72.7333 174.661 76.3333 170.661C79.4 167.195 87.6667 167.061 90.6 170.261ZM501 340.261C501 404.795 500.467 439.728 499.533 443.061C498.6 446.528 496.733 448.928 493.933 450.661C489.8 453.195 486.2 453.328 375.4 453.328H261V347.995V242.661H381H501V340.261ZM90.4667 425.195C94.7333 428.661 94.7333 436.661 90.4667 440.128C83.5333 445.861 73.8 441.461 73.8 432.661C73.8 426.795 77.8 422.661 83.6667 422.661C85.6667 422.661 88.7333 423.728 90.4667 425.195ZM172.867 554.128C176.6 558.928 176.333 563.461 172.2 567.595C169.4 570.395 167.933 570.795 163.933 570.128C157.933 569.195 155.667 566.395 155.667 559.861C155.667 553.861 159.267 550.661 165.8 550.661C168.867 550.661 171 551.728 172.867 554.128ZM602.333 553.328C605.533 556.528 605.933 564.261 602.867 567.195C599.933 570.261 594.6 571.195 590.867 569.461C584.733 566.661 583.4 557.861 588.467 552.795C591.4 549.728 599.133 550.128 602.333 553.328Z" fill="#0072B5"/>
<path d="M318.6 278.661C316.2 280.128 313.133 283.195 311.667 285.595C309.133 289.861 309 292.528 309 349.061V408.128L314.2 413.728L319.533 419.328L379.267 419.728L439.133 420.128L443.667 417.061C446.067 415.328 449.133 411.861 450.6 409.328C452.867 404.928 453 401.195 452.733 346.661L452.333 288.661L449.133 284.395C442.733 275.995 443.133 275.995 380.067 275.995C325.533 275.995 322.867 276.128 318.6 278.661ZM413 347.995V381.328H380.333H347.667V347.995V314.661H380.333H413V347.995Z" fill="#0072B5"/>
<path d="M652.333 313.728C637.8 318.661 626.333 328.395 619.933 341.195C616.733 347.861 616.333 350.128 616.333 361.995C616.333 374.661 616.6 375.728 620.867 383.728C626.067 393.195 635.4 402.261 644.733 406.928C650.067 409.595 653 409.995 665 409.995C677 409.995 679.933 409.461 685.4 406.795C695.4 401.861 704.333 392.928 709.267 382.928C713.267 374.795 713.667 373.061 713.667 361.328C713.533 345.728 711 339.195 700.333 328.128C690.733 317.995 680.067 313.061 667 312.395C661.533 312.261 655.4 312.795 652.333 313.728ZM671.933 354.261C675.133 357.995 675.667 360.928 674.2 365.328C670.733 375.195 656.867 373.861 654.867 363.328C653.667 357.195 658.333 351.995 664.867 351.995C668.067 351.995 670.733 352.928 671.933 354.261Z" fill="#0072B5"/>
</g>
<defs>
<filter id="filter0_d_302_2" x="728.289" y="61.2967" width="1040.98" height="330.659" filterUnits="userSpaceOnUse" color-interpolation-filters="sRGB">
<feFlood flood-opacity="0" result="BackgroundImageFix"/>
<feColorMatrix in="SourceAlpha" type="matrix" values="0 0 0 0 0 0 0 0 0 0 0 0 0 0 0 0 0 0 127 0" result="hardAlpha"/>
<feOffset dx="20.0124" dy="22.514"/>
<feGaussianBlur stdDeviation="6.25388"/>
<feComposite in2="hardAlpha" operator="out"/>
<feColorMatrix type="matrix" values="0 0 0 0 0 0 0 0 0 0 0 0 0 0 0 0 0 0 0.25 0"/>
<feBlend mode="normal" in2="BackgroundImageFix" result="effect1_dropShadow_302_2"/>
<feBlend mode="normal" in="SourceGraphic" in2="effect1_dropShadow_302_2" result="shape"/>
</filter>
<filter id="filter1_d_302_2" x="757.095" y="395.438" width="1093.71" height="223.416" filterUnits="userSpaceOnUse" color-interpolation-filters="sRGB">
<feFlood flood-opacity="0" result="BackgroundImageFix"/>
<feColorMatrix in="SourceAlpha" type="matrix" values="0 0 0 0 0 0 0 0 0 0 0 0 0 0 0 0 0 0 127 0" result="hardAlpha"/>
<feOffset dx="20.0124" dy="22.514"/>
<feGaussianBlur stdDeviation="6.25388"/>
<feComposite in2="hardAlpha" operator="out"/>
<feColorMatrix type="matrix" values="0 0 0 0 0 0 0 0 0 0 0 0 0 0 0 0 0 0 0.25 0"/>
<feBlend mode="normal" in2="BackgroundImageFix" result="effect1_dropShadow_302_2"/>
<feBlend mode="normal" in="SourceGraphic" in2="effect1_dropShadow_302_2" result="shape"/>
</filter>
<filter id="filter2_d_302_2" x="35" y="47" width="709.667" height="593.799" filterUnits="userSpaceOnUse" color-interpolation-filters="sRGB">
<feFlood flood-opacity="0" result="BackgroundImageFix"/>
<feColorMatrix in="SourceAlpha" type="matrix" values="0 0 0 0 0 0 0 0 0 0 0 0 0 0 0 0 0 0 127 0" result="hardAlpha"/>
<feOffset dx="18" dy="18"/>
<feGaussianBlur stdDeviation="6.5"/>
<feComposite in2="hardAlpha" operator="out"/>
<feColorMatrix type="matrix" values="0 0 0 0 0 0 0 0 0 0 0 0 0 0 0 0 0 0 0.25 0"/>
<feBlend mode="normal" in2="BackgroundImageFix" result="effect1_dropShadow_302_2"/>
<feBlend mode="normal" in="SourceGraphic" in2="effect1_dropShadow_302_2" result="shape"/>
</filter>
</defs>
</svg>
