<svg width="1742" height="460" viewBox="0 0 1742 460" fill="none" xmlns="http://www.w3.org/2000/svg">
<rect width="1742" height="460" fill="#1E1E1E"/>
<path d="M392.295 69.5454H429.932V216.818C429.864 230.318 427 241.943 421.341 251.693C415.682 261.375 407.773 268.841 397.614 274.091C387.523 279.273 375.761 281.864 362.33 281.864C350.057 281.864 339.011 279.682 329.193 275.318C319.443 270.886 311.705 264.341 305.977 255.682C300.25 247.023 297.386 236.25 297.386 223.364H335.125C335.193 229.023 336.42 233.898 338.807 237.989C341.261 242.08 344.636 245.216 348.932 247.398C353.227 249.58 358.17 250.67 363.761 250.67C369.83 250.67 374.977 249.409 379.205 246.886C383.432 244.295 386.636 240.477 388.818 235.432C391.068 230.386 392.227 224.182 392.295 216.818V69.5454ZM461.892 101.352V69.5454H629.006V101.352H564.267V279H526.631V101.352H461.892ZM662.807 279H622.307L696.045 69.5454H742.886L816.727 279H776.227L720.284 112.5H718.648L662.807 279ZM664.136 196.875H774.591V227.352H664.136V196.875ZM974.79 136.432C973.085 130.909 970.733 125.966 967.733 121.602C964.801 117.17 961.256 113.386 957.097 110.25C953.006 107.114 948.301 104.761 942.983 103.193C937.665 101.557 931.869 100.739 925.597 100.739C914.347 100.739 904.324 103.568 895.528 109.227C886.733 114.886 879.813 123.205 874.767 134.182C869.79 145.091 867.301 158.386 867.301 174.068C867.301 189.886 869.79 203.284 874.767 214.261C879.744 225.239 886.665 233.591 895.528 239.318C904.392 244.977 914.688 247.807 926.415 247.807C937.051 247.807 946.256 245.761 954.028 241.67C961.869 237.58 967.903 231.784 972.131 224.284C976.358 216.716 978.472 207.852 978.472 197.693L987.062 199.023H930.199V169.364H1015.19V194.523C1015.19 212.455 1011.37 227.966 1003.73 241.057C996.097 254.148 985.597 264.239 972.233 271.33C958.869 278.352 943.528 281.864 926.21 281.864C906.915 281.864 889.972 277.534 875.381 268.875C860.858 260.148 849.506 247.773 841.324 231.75C833.21 215.659 829.153 196.568 829.153 174.477C829.153 157.568 831.54 142.466 836.312 129.17C841.153 115.875 847.903 104.591 856.562 95.3182C865.222 85.9773 875.381 78.8864 887.04 74.0454C898.699 69.1364 911.381 66.6818 925.085 66.6818C936.676 66.6818 947.483 68.3864 957.506 71.7954C967.528 75.1364 976.426 79.9091 984.199 86.1136C992.04 92.3182 998.483 99.6818 1003.53 108.205C1008.57 116.727 1011.88 126.136 1013.45 136.432H974.79Z" fill="#2188FF"/>
<path d="M851.301 296.273V401H832.33V296.273H851.301ZM889.538 354.977V401H871.027V322.455H888.72V335.801H889.641C891.447 331.403 894.328 327.909 898.283 325.318C902.271 322.727 907.197 321.432 913.061 321.432C918.482 321.432 923.203 322.591 927.226 324.909C931.283 327.227 934.419 330.585 936.635 334.983C938.885 339.381 939.993 344.716 939.959 350.989V401H921.447V353.852C921.447 348.602 920.084 344.494 917.357 341.528C914.663 338.562 910.93 337.08 906.158 337.08C902.919 337.08 900.038 337.795 897.516 339.227C895.027 340.625 893.067 342.653 891.635 345.312C890.237 347.972 889.538 351.193 889.538 354.977ZM997.999 322.455V336.773H952.845V322.455H997.999ZM963.993 303.636H982.504V377.375C982.504 379.864 982.879 381.773 983.629 383.102C984.413 384.398 985.436 385.284 986.697 385.761C987.959 386.239 989.357 386.477 990.891 386.477C992.05 386.477 993.107 386.392 994.061 386.222C995.05 386.051 995.8 385.898 996.311 385.761L999.43 400.233C998.442 400.574 997.027 400.949 995.186 401.358C993.379 401.767 991.163 402.006 988.538 402.074C983.902 402.21 979.726 401.511 976.01 399.977C972.294 398.409 969.345 395.989 967.163 392.716C965.016 389.443 963.959 385.352 963.993 380.443V303.636ZM1047.41 402.534C1039.53 402.534 1032.73 400.898 1027.01 397.625C1021.31 394.318 1016.93 389.648 1013.86 383.614C1010.8 377.545 1009.26 370.403 1009.26 362.188C1009.26 354.108 1010.8 347.017 1013.86 340.915C1016.97 334.778 1021.3 330.006 1026.85 326.597C1032.41 323.153 1038.94 321.432 1046.44 321.432C1051.28 321.432 1055.85 322.216 1060.14 323.784C1064.47 325.318 1068.29 327.705 1071.6 330.943C1074.94 334.182 1077.56 338.307 1079.47 343.318C1081.38 348.295 1082.34 354.227 1082.34 361.114V366.79H1017.95V354.312H1064.59C1064.56 350.767 1063.79 347.614 1062.29 344.852C1060.79 342.057 1058.69 339.858 1056 338.256C1053.34 336.653 1050.24 335.852 1046.69 335.852C1042.91 335.852 1039.59 336.773 1036.72 338.614C1033.86 340.42 1031.63 342.807 1030.02 345.773C1028.45 348.705 1027.65 351.926 1027.62 355.438V366.33C1027.62 370.898 1028.45 374.818 1030.12 378.091C1031.8 381.33 1034.13 383.818 1037.13 385.557C1040.13 387.261 1043.64 388.114 1047.66 388.114C1050.36 388.114 1052.8 387.739 1054.98 386.989C1057.16 386.205 1059.05 385.062 1060.65 383.562C1062.26 382.062 1063.47 380.205 1064.28 377.989L1081.57 379.932C1080.48 384.5 1078.4 388.489 1075.33 391.898C1072.3 395.273 1068.41 397.898 1063.67 399.773C1058.93 401.614 1053.51 402.534 1047.41 402.534ZM1098 401V322.455H1115.94V335.545H1116.76C1118.19 331.011 1120.65 327.517 1124.13 325.062C1127.64 322.574 1131.64 321.33 1136.14 321.33C1137.17 321.33 1138.31 321.381 1139.57 321.483C1140.87 321.551 1141.94 321.67 1142.79 321.841V338.869C1142.01 338.597 1140.76 338.358 1139.06 338.153C1137.39 337.915 1135.77 337.795 1134.2 337.795C1130.83 337.795 1127.79 338.528 1125.1 339.994C1122.44 341.426 1120.34 343.42 1118.81 345.977C1117.27 348.534 1116.51 351.483 1116.51 354.824V401H1098ZM1199.09 322.455V336.773H1152.66V322.455H1199.09ZM1164.27 401V315.04C1164.27 309.756 1165.36 305.358 1167.54 301.847C1169.76 298.335 1172.72 295.71 1176.44 293.972C1180.15 292.233 1184.28 291.364 1188.81 291.364C1192.02 291.364 1194.87 291.619 1197.35 292.131C1199.84 292.642 1201.68 293.102 1202.88 293.511L1199.19 307.83C1198.41 307.591 1197.42 307.352 1196.23 307.114C1195.04 306.841 1193.71 306.705 1192.24 306.705C1188.8 306.705 1186.36 307.54 1184.93 309.21C1183.53 310.847 1182.83 313.199 1182.83 316.267V401H1164.27ZM1233.52 402.585C1228.54 402.585 1224.06 401.699 1220.07 399.926C1216.12 398.119 1212.98 395.46 1210.66 391.949C1208.38 388.437 1207.24 384.108 1207.24 378.96C1207.24 374.528 1208.05 370.864 1209.69 367.966C1211.33 365.068 1213.56 362.75 1216.39 361.011C1219.22 359.273 1222.41 357.96 1225.95 357.074C1229.53 356.153 1233.23 355.489 1237.05 355.08C1241.65 354.602 1245.38 354.176 1248.25 353.801C1251.11 353.392 1253.19 352.778 1254.49 351.96C1255.82 351.108 1256.48 349.795 1256.48 348.023V347.716C1256.48 343.864 1255.34 340.881 1253.05 338.767C1250.77 336.653 1247.48 335.597 1243.18 335.597C1238.65 335.597 1235.05 336.585 1232.39 338.562C1229.77 340.54 1228 342.875 1227.08 345.568L1209.79 343.114C1211.16 338.341 1213.41 334.352 1216.54 331.148C1219.68 327.909 1223.51 325.489 1228.05 323.886C1232.58 322.25 1237.59 321.432 1243.08 321.432C1246.87 321.432 1250.63 321.875 1254.38 322.761C1258.13 323.648 1261.56 325.114 1264.66 327.159C1267.76 329.17 1270.25 331.915 1272.13 335.392C1274.04 338.869 1274.99 343.216 1274.99 348.432V401H1257.2V390.21H1256.58C1255.46 392.392 1253.87 394.437 1251.83 396.347C1249.82 398.222 1247.28 399.739 1244.21 400.898C1241.17 402.023 1237.61 402.585 1233.52 402.585ZM1238.33 388.983C1242.04 388.983 1245.26 388.25 1247.99 386.784C1250.72 385.284 1252.82 383.307 1254.28 380.852C1255.78 378.398 1256.53 375.722 1256.53 372.824V363.568C1255.95 364.045 1254.96 364.489 1253.57 364.898C1252.2 365.307 1250.67 365.665 1248.96 365.972C1247.26 366.278 1245.57 366.551 1243.9 366.79C1242.23 367.028 1240.78 367.233 1239.55 367.403C1236.79 367.778 1234.32 368.392 1232.14 369.244C1229.96 370.097 1228.24 371.29 1226.97 372.824C1225.71 374.324 1225.08 376.267 1225.08 378.653C1225.08 382.062 1226.33 384.636 1228.82 386.375C1231.3 388.114 1234.47 388.983 1238.33 388.983ZM1327.87 402.534C1320.03 402.534 1313.29 400.812 1307.67 397.369C1302.08 393.926 1297.76 389.17 1294.73 383.102C1291.73 377 1290.23 369.977 1290.23 362.034C1290.23 354.057 1291.76 347.017 1294.83 340.915C1297.9 334.778 1302.23 330.006 1307.82 326.597C1313.45 323.153 1320.09 321.432 1327.76 321.432C1334.14 321.432 1339.78 322.608 1344.69 324.96C1349.63 327.278 1353.57 330.568 1356.5 334.83C1359.43 339.057 1361.11 344 1361.51 349.659H1343.82C1343.11 345.875 1341.4 342.722 1338.71 340.199C1336.05 337.642 1332.49 336.364 1328.02 336.364C1324.24 336.364 1320.91 337.386 1318.05 339.432C1315.18 341.443 1312.95 344.341 1311.35 348.125C1309.78 351.909 1309 356.443 1309 361.727C1309 367.08 1309.78 371.682 1311.35 375.534C1312.92 379.352 1315.12 382.301 1317.95 384.381C1320.81 386.426 1324.17 387.449 1328.02 387.449C1330.75 387.449 1333.18 386.937 1335.33 385.915C1337.51 384.858 1339.34 383.341 1340.8 381.364C1342.27 379.386 1343.28 376.983 1343.82 374.153H1361.51C1361.07 379.71 1359.43 384.636 1356.61 388.932C1353.78 393.193 1349.92 396.534 1345.05 398.955C1340.17 401.341 1334.45 402.534 1327.87 402.534ZM1411.49 402.534C1403.61 402.534 1396.81 400.898 1391.08 397.625C1385.39 394.318 1381.01 389.648 1377.94 383.614C1374.87 377.545 1373.34 370.403 1373.34 362.188C1373.34 354.108 1374.87 347.017 1377.94 340.915C1381.04 334.778 1385.37 330.006 1390.93 326.597C1396.49 323.153 1403.02 321.432 1410.52 321.432C1415.36 321.432 1419.92 322.216 1424.22 323.784C1428.55 325.318 1432.37 327.705 1435.67 330.943C1439.02 334.182 1441.64 338.307 1443.55 343.318C1445.46 348.295 1446.41 354.227 1446.41 361.114V366.79H1382.03V354.312H1428.67C1428.63 350.767 1427.87 347.614 1426.37 344.852C1424.87 342.057 1422.77 339.858 1420.08 338.256C1417.42 336.653 1414.32 335.852 1410.77 335.852C1406.99 335.852 1403.66 336.773 1400.8 338.614C1397.94 340.42 1395.7 342.807 1394.1 345.773C1392.53 348.705 1391.73 351.926 1391.7 355.438V366.33C1391.7 370.898 1392.53 374.818 1394.2 378.091C1395.87 381.33 1398.21 383.818 1401.21 385.557C1404.21 387.261 1407.72 388.114 1411.74 388.114C1414.44 388.114 1416.87 387.739 1419.06 386.989C1421.24 386.205 1423.13 385.062 1424.73 383.562C1426.33 382.062 1427.54 380.205 1428.36 377.989L1445.65 379.932C1444.56 384.5 1442.48 388.489 1439.41 391.898C1436.37 395.273 1432.49 397.898 1427.75 399.773C1423.01 401.614 1417.59 402.534 1411.49 402.534Z" fill="#2188FF"/>
</svg>
