<svg width="1600" height="600" viewBox="0 0 1600 600" fill="none" xmlns="http://www.w3.org/2000/svg">
<rect width="1600" height="600" fill="#1E1E1E"/>
<path d="M321.295 151.545H358.932V298.818C358.864 312.318 356 323.943 350.341 333.693C344.682 343.375 336.773 350.841 326.614 356.091C316.523 361.273 304.761 363.864 291.33 363.864C279.057 363.864 268.011 361.682 258.193 357.318C248.443 352.886 240.705 346.341 234.977 337.682C229.25 329.023 226.386 318.25 226.386 305.364H264.125C264.193 311.023 265.42 315.898 267.807 319.989C270.261 324.08 273.636 327.216 277.932 329.398C282.227 331.58 287.17 332.67 292.761 332.67C298.83 332.67 303.977 331.409 308.205 328.886C312.432 326.295 315.636 322.477 317.818 317.432C320.068 312.386 321.227 306.182 321.295 298.818V151.545ZM390.892 183.352V151.545H558.006V183.352H493.267V361H455.631V183.352H390.892ZM591.807 361H551.307L625.045 151.545H671.886L745.727 361H705.227L649.284 194.5H647.648L591.807 361ZM593.136 278.875H703.591V309.352H593.136V278.875ZM903.79 218.432C902.085 212.909 899.733 207.966 896.733 203.602C893.801 199.17 890.256 195.386 886.097 192.25C882.006 189.114 877.301 186.761 871.983 185.193C866.665 183.557 860.869 182.739 854.597 182.739C843.347 182.739 833.324 185.568 824.528 191.227C815.733 196.886 808.813 205.205 803.767 216.182C798.79 227.091 796.301 240.386 796.301 256.068C796.301 271.886 798.79 285.284 803.767 296.261C808.744 307.239 815.665 315.591 824.528 321.318C833.392 326.977 843.688 329.807 855.415 329.807C866.051 329.807 875.256 327.761 883.028 323.67C890.869 319.58 896.903 313.784 901.131 306.284C905.358 298.716 907.472 289.852 907.472 279.693L916.062 281.023H859.199V251.364H944.188V276.523C944.188 294.455 940.369 309.966 932.733 323.057C925.097 336.148 914.597 346.239 901.233 353.33C887.869 360.352 872.528 363.864 855.21 363.864C835.915 363.864 818.972 359.534 804.381 350.875C789.858 342.148 778.506 329.773 770.324 313.75C762.21 297.659 758.153 278.568 758.153 256.477C758.153 239.568 760.54 224.466 765.312 211.17C770.153 197.875 776.903 186.591 785.562 177.318C794.222 167.977 804.381 160.886 816.04 156.045C827.699 151.136 840.381 148.682 854.085 148.682C865.676 148.682 876.483 150.386 886.506 153.795C896.528 157.136 905.426 161.909 913.199 168.114C921.04 174.318 927.483 181.682 932.528 190.205C937.574 198.727 940.881 208.136 942.449 218.432H903.79Z" fill="#2188FF"/>
<path d="M780.301 378.273V483H761.33V378.273H780.301ZM818.538 436.977V483H800.027V404.455H817.72V417.801H818.641C820.447 413.403 823.328 409.909 827.283 407.318C831.271 404.727 836.197 403.432 842.061 403.432C847.482 403.432 852.203 404.591 856.226 406.909C860.283 409.227 863.419 412.585 865.635 416.983C867.885 421.381 868.993 426.716 868.959 432.989V483H850.447V435.852C850.447 430.602 849.084 426.494 846.357 423.528C843.663 420.562 839.93 419.08 835.158 419.08C831.919 419.08 829.038 419.795 826.516 421.227C824.027 422.625 822.067 424.653 820.635 427.312C819.237 429.972 818.538 433.193 818.538 436.977ZM926.999 404.455V418.773H881.845V404.455H926.999ZM892.993 385.636H911.504V459.375C911.504 461.864 911.879 463.773 912.629 465.102C913.413 466.398 914.436 467.284 915.697 467.761C916.959 468.239 918.357 468.477 919.891 468.477C921.05 468.477 922.107 468.392 923.061 468.222C924.05 468.051 924.8 467.898 925.311 467.761L928.43 482.233C927.442 482.574 926.027 482.949 924.186 483.358C922.379 483.767 920.163 484.006 917.538 484.074C912.902 484.21 908.726 483.511 905.01 481.977C901.294 480.409 898.345 477.989 896.163 474.716C894.016 471.443 892.959 467.352 892.993 462.443V385.636ZM976.409 484.534C968.534 484.534 961.733 482.898 956.006 479.625C950.313 476.318 945.932 471.648 942.864 465.614C939.795 459.545 938.261 452.403 938.261 444.188C938.261 436.108 939.795 429.017 942.864 422.915C945.966 416.778 950.295 412.006 955.852 408.597C961.409 405.153 967.938 403.432 975.438 403.432C980.278 403.432 984.847 404.216 989.142 405.784C993.472 407.318 997.29 409.705 1000.6 412.943C1003.94 416.182 1006.56 420.307 1008.47 425.318C1010.38 430.295 1011.34 436.227 1011.34 443.114V448.79H946.955V436.312H993.591C993.557 432.767 992.79 429.614 991.29 426.852C989.79 424.057 987.693 421.858 985 420.256C982.341 418.653 979.239 417.852 975.693 417.852C971.909 417.852 968.585 418.773 965.722 420.614C962.858 422.42 960.625 424.807 959.023 427.773C957.455 430.705 956.653 433.926 956.619 437.438V448.33C956.619 452.898 957.455 456.818 959.125 460.091C960.795 463.33 963.131 465.818 966.131 467.557C969.131 469.261 972.642 470.114 976.665 470.114C979.358 470.114 981.795 469.739 983.977 468.989C986.159 468.205 988.051 467.062 989.653 465.562C991.256 464.062 992.466 462.205 993.284 459.989L1010.57 461.932C1009.48 466.5 1007.4 470.489 1004.33 473.898C1001.3 477.273 997.409 479.898 992.67 481.773C987.932 483.614 982.511 484.534 976.409 484.534ZM1027 483V404.455H1044.94V417.545H1045.76C1047.19 413.011 1049.65 409.517 1053.13 407.062C1056.64 404.574 1060.64 403.33 1065.14 403.33C1066.17 403.33 1067.31 403.381 1068.57 403.483C1069.87 403.551 1070.94 403.67 1071.79 403.841V420.869C1071.01 420.597 1069.76 420.358 1068.06 420.153C1066.39 419.915 1064.77 419.795 1063.2 419.795C1059.83 419.795 1056.79 420.528 1054.1 421.994C1051.44 423.426 1049.34 425.42 1047.81 427.977C1046.27 430.534 1045.51 433.483 1045.51 436.824V483H1027ZM1128.09 404.455V418.773H1081.66V404.455H1128.09ZM1093.27 483V397.04C1093.27 391.756 1094.36 387.358 1096.54 383.847C1098.76 380.335 1101.72 377.71 1105.44 375.972C1109.15 374.233 1113.28 373.364 1117.81 373.364C1121.02 373.364 1123.87 373.619 1126.35 374.131C1128.84 374.642 1130.68 375.102 1131.88 375.511L1128.19 389.83C1127.41 389.591 1126.42 389.352 1125.23 389.114C1124.04 388.841 1122.71 388.705 1121.24 388.705C1117.8 388.705 1115.36 389.54 1113.93 391.21C1112.53 392.847 1111.83 395.199 1111.83 398.267V483H1093.27ZM1162.52 484.585C1157.54 484.585 1153.06 483.699 1149.07 481.926C1145.12 480.119 1141.98 477.46 1139.66 473.949C1137.38 470.437 1136.24 466.108 1136.24 460.96C1136.24 456.528 1137.05 452.864 1138.69 449.966C1140.33 447.068 1142.56 444.75 1145.39 443.011C1148.22 441.273 1151.41 439.96 1154.95 439.074C1158.53 438.153 1162.23 437.489 1166.05 437.08C1170.65 436.602 1174.38 436.176 1177.25 435.801C1180.11 435.392 1182.19 434.778 1183.49 433.96C1184.82 433.108 1185.48 431.795 1185.48 430.023V429.716C1185.48 425.864 1184.34 422.881 1182.05 420.767C1179.77 418.653 1176.48 417.597 1172.18 417.597C1167.65 417.597 1164.05 418.585 1161.39 420.562C1158.77 422.54 1157 424.875 1156.08 427.568L1138.79 425.114C1140.16 420.341 1142.41 416.352 1145.54 413.148C1148.68 409.909 1152.51 407.489 1157.05 405.886C1161.58 404.25 1166.59 403.432 1172.08 403.432C1175.87 403.432 1179.63 403.875 1183.38 404.761C1187.13 405.648 1190.56 407.114 1193.66 409.159C1196.76 411.17 1199.25 413.915 1201.13 417.392C1203.04 420.869 1203.99 425.216 1203.99 430.432V483H1186.2V472.21H1185.58C1184.46 474.392 1182.87 476.437 1180.83 478.347C1178.82 480.222 1176.28 481.739 1173.21 482.898C1170.17 484.023 1166.61 484.585 1162.52 484.585ZM1167.33 470.983C1171.04 470.983 1174.26 470.25 1176.99 468.784C1179.72 467.284 1181.82 465.307 1183.28 462.852C1184.78 460.398 1185.53 457.722 1185.53 454.824V445.568C1184.95 446.045 1183.96 446.489 1182.57 446.898C1181.2 447.307 1179.67 447.665 1177.96 447.972C1176.26 448.278 1174.57 448.551 1172.9 448.79C1171.23 449.028 1169.78 449.233 1168.55 449.403C1165.79 449.778 1163.32 450.392 1161.14 451.244C1158.96 452.097 1157.24 453.29 1155.97 454.824C1154.71 456.324 1154.08 458.267 1154.08 460.653C1154.08 464.062 1155.33 466.636 1157.82 468.375C1160.3 470.114 1163.47 470.983 1167.33 470.983ZM1256.87 484.534C1249.03 484.534 1242.29 482.812 1236.67 479.369C1231.08 475.926 1226.76 471.17 1223.73 465.102C1220.73 459 1219.23 451.977 1219.23 444.034C1219.23 436.057 1220.76 429.017 1223.83 422.915C1226.9 416.778 1231.23 412.006 1236.82 408.597C1242.45 405.153 1249.09 403.432 1256.76 403.432C1263.14 403.432 1268.78 404.608 1273.69 406.96C1278.63 409.278 1282.57 412.568 1285.5 416.83C1288.43 421.057 1290.11 426 1290.51 431.659H1272.82C1272.11 427.875 1270.4 424.722 1267.71 422.199C1265.05 419.642 1261.49 418.364 1257.02 418.364C1253.24 418.364 1249.91 419.386 1247.05 421.432C1244.18 423.443 1241.95 426.341 1240.35 430.125C1238.78 433.909 1238 438.443 1238 443.727C1238 449.08 1238.78 453.682 1240.35 457.534C1241.92 461.352 1244.12 464.301 1246.95 466.381C1249.81 468.426 1253.17 469.449 1257.02 469.449C1259.75 469.449 1262.18 468.937 1264.33 467.915C1266.51 466.858 1268.34 465.341 1269.8 463.364C1271.27 461.386 1272.28 458.983 1272.82 456.153H1290.51C1290.07 461.71 1288.43 466.636 1285.61 470.932C1282.78 475.193 1278.92 478.534 1274.05 480.955C1269.17 483.341 1263.45 484.534 1256.87 484.534ZM1340.49 484.534C1332.61 484.534 1325.81 482.898 1320.08 479.625C1314.39 476.318 1310.01 471.648 1306.94 465.614C1303.87 459.545 1302.34 452.403 1302.34 444.188C1302.34 436.108 1303.87 429.017 1306.94 422.915C1310.04 416.778 1314.37 412.006 1319.93 408.597C1325.49 405.153 1332.02 403.432 1339.52 403.432C1344.36 403.432 1348.92 404.216 1353.22 405.784C1357.55 407.318 1361.37 409.705 1364.67 412.943C1368.02 416.182 1370.64 420.307 1372.55 425.318C1374.46 430.295 1375.41 436.227 1375.41 443.114V448.79H1311.03V436.312H1357.67C1357.63 432.767 1356.87 429.614 1355.37 426.852C1353.87 424.057 1351.77 421.858 1349.08 420.256C1346.42 418.653 1343.32 417.852 1339.77 417.852C1335.99 417.852 1332.66 418.773 1329.8 420.614C1326.94 422.42 1324.7 424.807 1323.1 427.773C1321.53 430.705 1320.73 433.926 1320.7 437.438V448.33C1320.7 452.898 1321.53 456.818 1323.2 460.091C1324.87 463.33 1327.21 465.818 1330.21 467.557C1333.21 469.261 1336.72 470.114 1340.74 470.114C1343.44 470.114 1345.87 469.739 1348.06 468.989C1350.24 468.205 1352.13 467.062 1353.73 465.562C1355.33 464.062 1356.54 462.205 1357.36 459.989L1374.65 461.932C1373.56 466.5 1371.48 470.489 1368.41 473.898C1365.37 477.273 1361.49 479.898 1356.75 481.773C1352.01 483.614 1346.59 484.534 1340.49 484.534Z" fill="#2188FF"/>
</svg>
